0
SECTION
2
HEADER
9
$INSUNITS
70
5
9
$ACADVER
1
AC1014
9
$HANDSEED
5
FFFF
0
ENDSEC
0
SECTION
2
TABLES
0
TABLE
2
VPORT
5
8
100
AcDbSymbolTable
0
ENDTAB
0
TABLE
2
LTYPE
5
5
100
AcDbSymbolTable
0
LTYPE
5
14
100
AcDbSymbolTableRecord
100
AcDbLinetypeTableRecord
2
BYBLOCK
70
0
0
LTYPE
5
15
100
AcDbSymbolTableRecord
100
AcDbLinetypeTableRecord
2
BYLAYER
70
0
0
ENDTAB
0
TABLE
2
LAYER
5
2
100
AcDbSymbolTable
70
2
0
LAYER
5
50
100
AcDbSymbolTableRecord
100
AcDbLayerTableRecord
2
0
70
0
6
CONTINUOUS
0
ENDTAB
0
TABLE
2
STYLE
5
3
100
AcDbSymbolTable
70
1
0
STYLE
5
11
100
AcDbSymbolTableRecord
100
AcDbTextStyleTableRecord
2
STANDARD
70
0
0
ENDTAB
0
TABLE
2
VIEW
5
6
100
AcDbSymbolTable
70
0
0
ENDTAB
0
TABLE
2
UCS
5
7
100
AcDbSymbolTable
70
0
0
ENDTAB
0
TABLE
2
APPID
5
9
100
AcDbSymbolTable
70
2
0
APPID
5
12
100
AcDbSymbolTableRecord
100
AcDbRegAppTableRecord
2
ACAD
70
0
0
ENDTAB
0
TABLE
2
DIMSTYLE
5
A
100
AcDbSymbolTable
70
1
0
ENDTAB
0
TABLE
2
BLOCK_RECORD
5
1
100
AcDbSymbolTable
70
1
0
BLOCK_RECORD
5
1F
100
AcDbSymbolTableRecord
100
AcDbBlockTableRecord
2
*MODEL_SPACE
0
BLOCK_RECORD
5
1B
100
AcDbSymbolTableRecord
100
AcDbBlockTableRecord
2
*PAPER_SPACE
0
ENDTAB
0
ENDSEC
0
SECTION
2
BLOCKS
0
BLOCK
5
20
100
AcDbEntity
100
AcDbBlockBegin
2
*MODEL_SPACE
0
ENDBLK
5
21
100
AcDbEntity
100
AcDbBlockEnd
0
BLOCK
5
1C
100
AcDbEntity
100
AcDbBlockBegin
2
*PAPER_SPACE
0
ENDBLK
5
1D
100
AcDbEntity
100
AcDbBlockEnd
0
ENDSEC
0
SECTION
2
ENTITIES
0
CIRCLE
5
100
100
AcDbEntity
8
0
100
AcDbCircle
10
0
20
0
30
0
40
1.0249999999999999
0
LINE
5
101
100
AcDbEntity
8
0
100
AcDbLine
10
6.2450045135165055e-17
20
1.0249999999999999
30
0
11
0
21
0
31
0
0
LWPOLYLINE
5
102
100
AcDbEntity
8
0
100
AcDbPolyline
90
4
70
1
43
0.0
10
1.1749999999999998
20
0.26499999999999996
10
-1.1749999999999998
20
0.26500000000000001
10
-1.175
20
-0.26500000000000035
10
1.1750000000000005
20
-0.26500000000000029
0
LWPOLYLINE
5
103
100
AcDbEntity
8
0
100
AcDbPolyline
90
4
70
1
43
0.0
10
14
20
-5
10
-5
20
-5
10
-5
20
14
10
14
20
14
0
LWPOLYLINE
5
104
100
AcDbEntity
8
0
100
AcDbPolyline
90
4
70
1
43
0.0
10
0.13500000000000012
20
1.1749999999999998
10
-0.1349999999999999
20
1.1749999999999998
10
-0.13500000000000001
20
0.87499999999999978
10
0.13500000000000012
20
0.87499999999999978
0
LWPOLYLINE
5
105
100
AcDbEntity
8
0
100
AcDbPolyline
90
4
70
1
43
0.0
10
4.1749999999999998
20
0.26499999999999996
10
1.8250000000000002
20
0.26500000000000001
10
1.8250000000000002
20
-0.26500000000000035
10
4.1750000000000007
20
-0.26500000000000029
0
LWPOLYLINE
5
106
100
AcDbEntity
8
0
100
AcDbPolyline
90
4
70
1
43
0.0
10
2.8650000000000002
20
1.1749999999999998
10
2.8650000000000002
20
0.87499999999999978
10
3.1350000000000002
20
0.87499999999999978
10
3.1350000000000002
20
1.1749999999999998
0
CIRCLE
5
107
100
AcDbEntity
8
0
100
AcDbCircle
10
3
20
0
30
0
40
1.0249999999999999
0
LINE
5
108
100
AcDbEntity
8
0
100
AcDbLine
10
3
20
1.0249999999999999
30
0
11
3
21
0
31
0
0
LWPOLYLINE
5
109
100
AcDbEntity
8
0
100
AcDbPolyline
90
4
70
1
43
0.0
10
7.1749999999999998
20
0.26499999999999996
10
4.8250000000000002
20
0.26500000000000001
10
4.8250000000000002
20
-0.26500000000000035
10
7.1750000000000007
20
-0.26500000000000029
0
LWPOLYLINE
5
110
100
AcDbEntity
8
0
100
AcDbPolyline
90
4
70
1
43
0.0
10
5.8650000000000002
20
1.1749999999999998
10
5.8650000000000002
20
0.87499999999999978
10
6.1349999999999998
20
0.87499999999999978
10
6.1349999999999998
20
1.1749999999999998
0
CIRCLE
5
111
100
AcDbEntity
8
0
100
AcDbCircle
10
6
20
0
30
0
40
1.0249999999999999
0
LINE
5
112
100
AcDbEntity
8
0
100
AcDbLine
10
6
20
1.0249999999999999
30
0
11
6
21
0
31
0
0
LWPOLYLINE
5
113
100
AcDbEntity
8
0
100
AcDbPolyline
90
4
70
1
43
0.0
10
10.175000000000001
20
0.26499999999999996
10
7.8250000000000002
20
0.26500000000000001
10
7.8250000000000002
20
-0.26500000000000035
10
10.175000000000001
20
-0.26500000000000029
0
LWPOLYLINE
5
114
100
AcDbEntity
8
0
100
AcDbPolyline
90
4
70
1
43
0.0
10
8.8650000000000002
20
1.1749999999999998
10
8.8650000000000002
20
0.87499999999999978
10
9.1349999999999998
20
0.87499999999999978
10
9.1349999999999998
20
1.1749999999999998
0
CIRCLE
5
115
100
AcDbEntity
8
0
100
AcDbCircle
10
9
20
0
30
0
40
1.0249999999999999
0
LINE
5
116
100
AcDbEntity
8
0
100
AcDbLine
10
9
20
1.0249999999999999
30
0
11
9
21
0
31
0
0
LWPOLYLINE
5
117
100
AcDbEntity
8
0
100
AcDbPolyline
90
4
70
1
43
0.0
10
1.1749999999999998
20
3.2650000000000001
10
-1.1749999999999998
20
3.2650000000000001
10
-1.175
20
2.7349999999999994
10
1.1750000000000005
20
2.7349999999999999
0
LWPOLYLINE
5
118
100
AcDbEntity
8
0
100
AcDbPolyline
90
4
70
1
43
0.0
10
-0.1349999999999999
20
4.1749999999999998
10
-0.13500000000000001
20
3.875
10
0.13500000000000012
20
3.875
10
0.13500000000000012
20
4.1749999999999998
0
CIRCLE
5
119
100
AcDbEntity
8
0
100
AcDbCircle
10
0
20
3
30
0
40
1.0249999999999999
0
LINE
5
120
100
AcDbEntity
8
0
100
AcDbLine
10
6.2450045135165055e-17
20
4.0250000000000004
30
0
11
0
21
3
31
0
0
LWPOLYLINE
5
121
100
AcDbEntity
8
0
100
AcDbPolyline
90
4
70
1
43
0.0
10
4.1749999999999998
20
3.2650000000000001
10
1.8250000000000002
20
3.2650000000000001
10
1.8250000000000002
20
2.7349999999999994
10
4.1750000000000007
20
2.7349999999999999
0
LWPOLYLINE
5
122
100
AcDbEntity
8
0
100
AcDbPolyline
90
4
70
1
43
0.0
10
2.8650000000000002
20
4.1749999999999998
10
2.8650000000000002
20
3.875
10
3.1350000000000002
20
3.875
10
3.1350000000000002
20
4.1749999999999998
0
CIRCLE
5
123
100
AcDbEntity
8
0
100
AcDbCircle
10
3
20
3
30
0
40
1.0249999999999999
0
LINE
5
124
100
AcDbEntity
8
0
100
AcDbLine
10
3
20
4.0250000000000004
30
0
11
3
21
3
31
0
0
LWPOLYLINE
5
125
100
AcDbEntity
8
0
100
AcDbPolyline
90
4
70
1
43
0.0
10
7.1749999999999998
20
3.2650000000000001
10
4.8250000000000002
20
3.2650000000000001
10
4.8250000000000002
20
2.7349999999999994
10
7.1750000000000007
20
2.7349999999999999
0
LWPOLYLINE
5
126
100
AcDbEntity
8
0
100
AcDbPolyline
90
4
70
1
43
0.0
10
5.8650000000000002
20
4.1749999999999998
10
5.8650000000000002
20
3.875
10
6.1349999999999998
20
3.875
10
6.1349999999999998
20
4.1749999999999998
0
CIRCLE
5
127
100
AcDbEntity
8
0
100
AcDbCircle
10
6
20
3
30
0
40
1.0249999999999999
0
LINE
5
128
100
AcDbEntity
8
0
100
AcDbLine
10
6
20
4.0250000000000004
30
0
11
6
21
3
31
0
0
LWPOLYLINE
5
129
100
AcDbEntity
8
0
100
AcDbPolyline
90
4
70
1
43
0.0
10
10.175000000000001
20
3.2650000000000001
10
7.8250000000000002
20
3.2650000000000001
10
7.8250000000000002
20
2.7349999999999994
10
10.175000000000001
20
2.7349999999999999
0
LWPOLYLINE
5
130
100
AcDbEntity
8
0
100
AcDbPolyline
90
4
70
1
43
0.0
10
8.8650000000000002
20
4.1749999999999998
10
8.8650000000000002
20
3.875
10
9.1349999999999998
20
3.875
10
9.1349999999999998
20
4.1749999999999998
0
CIRCLE
5
131
100
AcDbEntity
8
0
100
AcDbCircle
10
9
20
3
30
0
40
1.0249999999999999
0
LINE
5
132
100
AcDbEntity
8
0
100
AcDbLine
10
9
20
4.0250000000000004
30
0
11
9
21
3
31
0
0
LWPOLYLINE
5
133
100
AcDbEntity
8
0
100
AcDbPolyline
90
4
70
1
43
0.0
10
1.1749999999999998
20
6.2649999999999997
10
-1.1749999999999998
20
6.2649999999999997
10
-1.175
20
5.7349999999999994
10
1.1750000000000005
20
5.7349999999999994
0
LWPOLYLINE
5
134
100
AcDbEntity
8
0
100
AcDbPolyline
90
4
70
1
43
0.0
10
-0.1349999999999999
20
7.1749999999999998
10
-0.13500000000000001
20
6.875
10
0.13500000000000012
20
6.875
10
0.13500000000000012
20
7.1749999999999998
0
CIRCLE
5
135
100
AcDbEntity
8
0
100
AcDbCircle
10
0
20
6
30
0
40
1.0249999999999999
0
LINE
5
136
100
AcDbEntity
8
0
100
AcDbLine
10
6.2450045135165055e-17
20
7.0250000000000004
30
0
11
0
21
6
31
0
0
LWPOLYLINE
5
137
100
AcDbEntity
8
0
100
AcDbPolyline
90
4
70
1
43
0.0
10
4.1749999999999998
20
6.2649999999999997
10
1.8250000000000002
20
6.2649999999999997
10
1.8250000000000002
20
5.7349999999999994
10
4.1750000000000007
20
5.7349999999999994
0
LWPOLYLINE
5
138
100
AcDbEntity
8
0
100
AcDbPolyline
90
4
70
1
43
0.0
10
2.8650000000000002
20
7.1749999999999998
10
2.8650000000000002
20
6.875
10
3.1350000000000002
20
6.875
10
3.1350000000000002
20
7.1749999999999998
0
CIRCLE
5
139
100
AcDbEntity
8
0
100
AcDbCircle
10
3
20
6
30
0
40
1.0249999999999999
0
LINE
5
140
100
AcDbEntity
8
0
100
AcDbLine
10
3
20
7.0250000000000004
30
0
11
3
21
6
31
0
0
LWPOLYLINE
5
141
100
AcDbEntity
8
0
100
AcDbPolyline
90
4
70
1
43
0.0
10
7.1749999999999998
20
6.2649999999999997
10
4.8250000000000002
20
6.2649999999999997
10
4.8250000000000002
20
5.7349999999999994
10
7.1750000000000007
20
5.7349999999999994
0
LWPOLYLINE
5
142
100
AcDbEntity
8
0
100
AcDbPolyline
90
4
70
1
43
0.0
10
5.8650000000000002
20
7.1749999999999998
10
5.8650000000000002
20
6.875
10
6.1349999999999998
20
6.875
10
6.1349999999999998
20
7.1749999999999998
0
CIRCLE
5
143
100
AcDbEntity
8
0
100
AcDbCircle
10
6
20
6
30
0
40
1.0249999999999999
0
LINE
5
144
100
AcDbEntity
8
0
100
AcDbLine
10
6
20
7.0250000000000004
30
0
11
6
21
6
31
0
0
LWPOLYLINE
5
145
100
AcDbEntity
8
0
100
AcDbPolyline
90
4
70
1
43
0.0
10
10.175000000000001
20
6.2649999999999997
10
7.8250000000000002
20
6.2649999999999997
10
7.8250000000000002
20
5.7349999999999994
10
10.175000000000001
20
5.7349999999999994
0
LWPOLYLINE
5
146
100
AcDbEntity
8
0
100
AcDbPolyline
90
4
70
1
43
0.0
10
8.8650000000000002
20
7.1749999999999998
10
8.8650000000000002
20
6.875
10
9.1349999999999998
20
6.875
10
9.1349999999999998
20
7.1749999999999998
0
CIRCLE
5
147
100
AcDbEntity
8
0
100
AcDbCircle
10
9
20
6
30
0
40
1.0249999999999999
0
LINE
5
148
100
AcDbEntity
8
0
100
AcDbLine
10
9
20
7.0250000000000004
30
0
11
9
21
6
31
0
0
LWPOLYLINE
5
149
100
AcDbEntity
8
0
100
AcDbPolyline
90
4
70
1
43
0.0
10
1.1749999999999998
20
9.2650000000000006
10
-1.1749999999999998
20
9.2650000000000006
10
-1.175
20
8.7349999999999994
10
1.1750000000000005
20
8.7349999999999994
0
LWPOLYLINE
5
150
100
AcDbEntity
8
0
100
AcDbPolyline
90
4
70
1
43
0.0
10
-0.1349999999999999
20
10.175000000000001
10
-0.13500000000000001
20
9.875
10
0.13500000000000012
20
9.875
10
0.13500000000000012
20
10.175000000000001
0
CIRCLE
5
151
100
AcDbEntity
8
0
100
AcDbCircle
10
0
20
9
30
0
40
1.0249999999999999
0
LINE
5
152
100
AcDbEntity
8
0
100
AcDbLine
10
6.2450045135165055e-17
20
10.025
30
0
11
0
21
9
31
0
0
LWPOLYLINE
5
153
100
AcDbEntity
8
0
100
AcDbPolyline
90
4
70
1
43
0.0
10
4.1749999999999998
20
9.2650000000000006
10
1.8250000000000002
20
9.2650000000000006
10
1.8250000000000002
20
8.7349999999999994
10
4.1750000000000007
20
8.7349999999999994
0
LWPOLYLINE
5
154
100
AcDbEntity
8
0
100
AcDbPolyline
90
4
70
1
43
0.0
10
2.8650000000000002
20
10.175000000000001
10
2.8650000000000002
20
9.875
10
3.1350000000000002
20
9.875
10
3.1350000000000002
20
10.175000000000001
0
CIRCLE
5
155
100
AcDbEntity
8
0
100
AcDbCircle
10
3
20
9
30
0
40
1.0249999999999999
0
LINE
5
156
100
AcDbEntity
8
0
100
AcDbLine
10
3
20
10.025
30
0
11
3
21
9
31
0
0
LWPOLYLINE
5
157
100
AcDbEntity
8
0
100
AcDbPolyline
90
4
70
1
43
0.0
10
7.1749999999999998
20
9.2650000000000006
10
4.8250000000000002
20
9.2650000000000006
10
4.8250000000000002
20
8.7349999999999994
10
7.1750000000000007
20
8.7349999999999994
0
LWPOLYLINE
5
158
100
AcDbEntity
8
0
100
AcDbPolyline
90
4
70
1
43
0.0
10
5.8650000000000002
20
10.175000000000001
10
5.8650000000000002
20
9.875
10
6.1349999999999998
20
9.875
10
6.1349999999999998
20
10.175000000000001
0
CIRCLE
5
159
100
AcDbEntity
8
0
100
AcDbCircle
10
6
20
9
30
0
40
1.0249999999999999
0
LINE
5
160
100
AcDbEntity
8
0
100
AcDbLine
10
6
20
10.025
30
0
11
6
21
9
31
0
0
LWPOLYLINE
5
161
100
AcDbEntity
8
0
100
AcDbPolyline
90
4
70
1
43
0.0
10
10.175000000000001
20
9.2650000000000006
10
7.8250000000000002
20
9.2650000000000006
10
7.8250000000000002
20
8.7349999999999994
10
10.175000000000001
20
8.7349999999999994
0
LWPOLYLINE
5
162
100
AcDbEntity
8
0
100
AcDbPolyline
90
4
70
1
43
0.0
10
8.8650000000000002
20
10.175000000000001
10
8.8650000000000002
20
9.875
10
9.1349999999999998
20
9.875
10
9.1349999999999998
20
10.175000000000001
0
CIRCLE
5
163
100
AcDbEntity
8
0
100
AcDbCircle
10
9
20
9
30
0
40
1.0249999999999999
0
LINE
5
164
100
AcDbEntity
8
0
100
AcDbLine
10
9
20
10.025
30
0
11
9
21
9
31
0
0
LWPOLYLINE
5
165
100
AcDbEntity
8
0
100
AcDbPolyline
90
4
70
1
43
0.0
10
-8
20
1.5
10
-9
20
1.5
10
-9
20
0.5
10
-8
20
0.5
0
ENDSEC
0
SECTION
2
OBJECTS
0
DICTIONARY
5
C
100
AcDbDictionary
3
ACAD_GROUP
350
D
3
ACAD_MLINESTYLE
350
17
0
DICTIONARY
5
D
100
AcDbDictionary
0
DICTIONARY
5
1A
330
C
100
AcDbDictionary
0
DICTIONARY
5
17
100
AcDbDictionary
0
ENDSEC
0
EOF
